<?xml version="1.0" standalone="no"?>
<!DOCTYPE svg PUBLIC "-//W3C//DTD SVG 20010904//EN"
 "http://www.w3.org/TR/2001/REC-SVG-20010904/DTD/svg10.dtd">
<svg version="1.0" xmlns="http://www.w3.org/2000/svg"
 width="512.000000pt" height="512.000000pt" viewBox="0 0 512.000000 512.000000"
 preserveAspectRatio="xMidYMid meet">
<metadata>
Created by potrace 1.11, written by Peter Selinger 2001-2013
</metadata>
<g transform="translate(0.000000,512.000000) scale(0.100000,-0.100000)"
fill="#000000" stroke="none">
<path d="M2477 5035 c-1 -1 -46 -5 -100 -9 -313 -20 -613 -101 -902 -243 -94
-46 -196 -102 -210 -114 -16 -15 -31 -10 -71 22 -39 32 -149 87 -188 95 -177
35 -314 12 -443 -73 -59 -39 -163 -147 -163 -169 0 -8 -4 -14 -9 -14 -9 0 -39
-70 -61 -144 -13 -41 -16 -176 -6 -236 15 -87 45 -147 130 -264 5 -7 -4 -32
-24 -66 -76 -128 -172 -338 -223 -491 -128 -380 -156 -837 -75 -1244 52 -263
135 -494 263 -724 26 -46 53 -94 61 -106 13 -20 12 -24 -11 -51 -24 -27 -79
-113 -80 -124 -1 -3 -6 -14 -12 -25 -18 -33 -35 -122 -38 -193 -9 -260 197
-511 450 -550 50 -7 159 -7 205 0 61 10 163 57 224 102 l59 45 38 -25 c53 -33
262 -138 334 -167 468 -190 961 -231 1480 -123 111 23 318 91 437 143 91 40
262 128 300 154 14 11 29 19 33 19 4 0 25 -15 48 -33 60 -48 109 -74 183 -98
71 -23 193 -31 259 -17 41 8 176 58 185 68 3 3 23 19 45 35 140 104 220 264
218 435 -1 131 -34 226 -116 337 -20 28 -37 54 -37 58 0 4 8 19 19 33 29 42
124 228 163 322 72 171 143 419 162 565 3 22 8 60 11 85 72 514 -52 1118 -318
1558 l-38 63 31 37 c17 20 34 42 38 47 15 19 62 124 62 138 0 7 3 17 7 20 20
21 20 215 0 282 -39 131 -118 241 -226 314 -199 135 -465 123 -649 -29 l-36
-29 -30 18 c-289 175 -652 306 -931 337 -27 3 -52 7 -55 9 -13 8 -384 26 -393
20z"/>
</g>
</svg>
